HIERARCHY
ROOT Root
{
	OFFSET 0.0000 0.0000 0.0000
	CHANNELS 6 Xposition Yposition Zposition Zrotation Xrotation Yrotation
	JOINT Spine01
	{
		OFFSET 0.0000 -16.7008 118.8322
		CHANNELS 6 Xposition Yposition Zposition Zrotation Xrotation Yrotation
		JOINT Spine02
		{
			OFFSET 0.0000 11.8586 169.5859
			CHANNELS 6 Xposition Yposition Zposition Zrotation Xrotation Yrotation
			JOINT LeftShoulder
			{
				OFFSET 83.0000 21.5583 44.2746
				CHANNELS 6 Xposition Yposition Zposition Zrotation Xrotation Yrotation
				JOINT LeftArm
				{
					OFFSET 0.0000 -111.4369 141.3570
					CHANNELS 6 Xposition Yposition Zposition Zrotation Xrotation Yrotation
					JOINT LeftForeArm
					{
						OFFSET 0.0000 -172.4081 -79.8464
						CHANNELS 6 Xposition Yposition Zposition Zrotation Xrotation Yrotation
						JOINT LeftWrist
						{
							OFFSET 0.0000 -209.8784 7.1457
							CHANNELS 6 Xposition Yposition Zposition Zrotation Xrotation Yrotation
							JOINT LeftHand
							{
								OFFSET 0.0000 -64.9257 26.1658
								CHANNELS 6 Xposition Yposition Zposition Zrotation Xrotation Yrotation
								End Site
								{
									OFFSET 0.0000 -20.5704 56.3636
								}
							}
						}
					}
				}
			}
			JOINT RightShoulder
			{
				OFFSET -83.0000 21.5583 44.2746
				CHANNELS 6 Xposition Yposition Zposition Zrotation Xrotation Yrotation
				JOINT RightArm
				{
					OFFSET 0.0000 -111.4369 141.3570
					CHANNELS 6 Xposition Yposition Zposition Zrotation Xrotation Yrotation
					JOINT RightForeArm
					{
						OFFSET 0.0000 -172.4081 -79.8464
						CHANNELS 6 Xposition Yposition Zposition Zrotation Xrotation Yrotation
						JOINT RightWrist
						{
							OFFSET 0.0000 -209.8784 7.1457
							CHANNELS 6 Xposition Yposition Zposition Zrotation Xrotation Yrotation
							JOINT RightHand
							{
								OFFSET 0.0000 -64.9257 26.1658
								CHANNELS 6 Xposition Yposition Zposition Zrotation Xrotation Yrotation
								End Site
								{
									OFFSET 0.0000 -20.5704 56.3636
								}
							}
						}
					}
				}
			}
			JOINT Neck01
			{
				OFFSET 0.0000 4.1879 119.9269
				CHANNELS 6 Xposition Yposition Zposition Zrotation Xrotation Yrotation
				JOINT Neck02
				{
					OFFSET 0.0000 -14.3102 88.8550
					CHANNELS 6 Xposition Yposition Zposition Zrotation Xrotation Yrotation
					JOINT Neck03
					{
						OFFSET 0.0000 72.0997 53.8668
						CHANNELS 6 Xposition Yposition Zposition Zrotation Xrotation Yrotation
						JOINT Neck04
						{
							OFFSET 0.0000 88.9597 -13.6445
							CHANNELS 6 Xposition Yposition Zposition Zrotation Xrotation Yrotation
							JOINT Head
							{
								OFFSET 0.0000 19.3735 72.4546
								CHANNELS 6 Xposition Yposition Zposition Zrotation Xrotation Yrotation
								End Site
								{
									OFFSET 0.0000 -28.2512 167.6361
								}
								JOINT LeftEar
								{
									OFFSET 45.0000 62.4894 -9.7509
									CHANNELS 6 Xposition Yposition Zposition Zrotation Xrotation Yrotation
									End Site
									{
										OFFSET 23.1256 59.6428 28.4242
									}
								}
								JOINT RightEar
								{
									OFFSET -45.0000 62.4894 -9.7509
									CHANNELS 6 Xposition Yposition Zposition Zrotation Xrotation Yrotation
									End Site
									{
										OFFSET -23.1256 59.6428 28.4242
									}
								}
							}
						}
					}
				}
			}
		}
	}
	JOINT LeftLeg
	{
		OFFSET 75.0000 -65.3041 -110.1607
		CHANNELS 6 Xposition Yposition Zposition Zrotation Xrotation Yrotation
		JOINT LeftLowerLeg
		{
			OFFSET 0.0000 -209.4885 14.6489
			CHANNELS 6 Xposition Yposition Zposition Zrotation Xrotation Yrotation
			JOINT LeftAnkle
			{
				OFFSET 0.0000 -168.5298 -141.4133
				CHANNELS 6 Xposition Yposition Zposition Zrotation Xrotation Yrotation
				JOINT LeftFoot
				{
					OFFSET 0.0000 -96.5926 25.8819
					CHANNELS 6 Xposition Yposition Zposition Zrotation Xrotation Yrotation
					End Site
					{
						OFFSET 0.0000 -19.5341 56.7311
					}
				}
			}
		}
	}
	JOINT RightLeg
	{
		OFFSET -75.0000 -65.3041 -110.1607
		CHANNELS 6 Xposition Yposition Zposition Zrotation Xrotation Yrotation
		JOINT RightLowerLeg
		{
			OFFSET 0.0000 -209.4885 14.6489
			CHANNELS 6 Xposition Yposition Zposition Zrotation Xrotation Yrotation
			JOINT RightAnkle
			{
				OFFSET 0.0000 -168.5298 -141.4133
				CHANNELS 6 Xposition Yposition Zposition Zrotation Xrotation Yrotation
				JOINT RightFoot
				{
					OFFSET 0.0000 -96.5926 25.8819
					CHANNELS 6 Xposition Yposition Zposition Zrotation Xrotation Yrotation
					End Site
					{
						OFFSET 0.0000 -19.5341 56.7311
					}
				}
			}
		}
	}
	JOINT TailBase
	{
		OFFSET 0.0000 -22.9100 -124.3991
		CHANNELS 6 Xposition Yposition Zposition Zrotation Xrotation Yrotation
		JOINT Tail1
		{
			OFFSET 0.0000 0.0000 -67.0000
			CHANNELS 6 Xposition Yposition Zposition Zrotation Xrotation Yrotation
			JOINT Tail2
			{
				OFFSET 0.0000 0.0000 -67.0000
				CHANNELS 6 Xposition Yposition Zposition Zrotation Xrotation Yrotation
				JOINT Tail3
				{
					OFFSET 0.0000 0.0000 -67.0000
					CHANNELS 6 Xposition Yposition Zposition Zrotation Xrotation Yrotation
					JOINT Tail4
					{
						OFFSET 0.0000 0.0000 -67.0000
						CHANNELS 6 Xposition Yposition Zposition Zrotation Xrotation Yrotation
						JOINT Tail5
						{
							OFFSET 0.0000 0.0000 -67.0000
							CHANNELS 6 Xposition Yposition Zposition Zrotation Xrotation Yrotation
							JOINT Tail6
							{
								OFFSET 0.0000 0.0000 -67.0000
								CHANNELS 6 Xposition Yposition Zposition Zrotation Xrotation Yrotation
								End Site
								{
									OFFSET 0.0000 0.0000 -67.0000
								}
							}
						}
					}
				}
			}
		}
	}
}
MOTION
Frames: 4
Frame Time: 0.008342
-621.2590 709.9790 28.8383 24.7524 5.9640 102.2506 0.0000 -16.7008 118.8322 -8.7027 8.8804 0.9093 0.0000 11.8586 169.5859 -0.9114 7.8276 2.4110 44.3406 35.5360 35.1792 34.9135 -14.8679 6.3543 0.0000 -111.4369 141.3570 -41.7826 -2.5196 -2.9207 0.0000 -172.4081 -79.8464 0.2904 -54.9375 -4.6679 -0.0000 -209.8784 7.1457 1.0516 29.6122 0.0420 0.0000 -64.9257 26.1658 -16.7857 43.9766 16.2769 -66.2297 49.0299 65.6057 -27.7634 -19.2513 -3.5742 0.0000 -111.4369 141.3570 23.6938 24.4973 10.7352 0.0000 -172.4081 -79.8464 10.6302 -84.0569 -23.5572 0.0000 -209.8784 7.1457 2.4081 67.4873 0.2332 0.0000 -64.9257 26.1658 -10.1336 76.0392 10.7286 0.0000 4.1879 119.9269 -7.3347 3.0313 -2.4988 0.0000 -14.3102 88.8550 -3.0632 60.0102 12.6756 0.0000 72.0997 53.8668 -1.3503 28.3258 4.1307 0.0000 88.9597 -13.6445 -5.8105 -42.2656 -8.8536 0.0000 19.3735 72.4546 14.4534 6.9582 8.7648 53.1850 51.8754 -1.1344 -9.4185 -10.5550 5.2922 -31.6354 63.4234 -0.9671 0.9401 -5.2967 2.8304 75.0000 -65.3041 -110.1607 7.5905 33.9413 5.7553 -0.0000 -209.4885 14.6489 0.0000 -16.9518 -0.0000 -0.0000 -168.5298 -141.4133 -0.0000 35.5416 0.0000 0.0000 -96.5926 25.8819 -0.5197 46.1720 0.4988 -75.0000 -65.3041 -110.1607 -2.4916 32.2689 -23.1218 0.0000 -209.4885 14.6489 -0.0000 -22.4509 -0.0000 0.0000 -168.5298 -141.4133 -0.0000 48.3053 0.0000 0.0000 -96.5926 25.8819 6.8106 27.0650 -5.2060 0.0000 -22.9100 -124.3991 -0.2775 13.4654 2.8826 -0.0000 0.0000 -67.0000 -0.7139 -8.9035 -4.6031 0.0000 0.0000 -67.0000 -5.7176 27.2257 12.3447 -0.0000 0.0000 -67.0000 -0.8403 13.9005 3.4936 0.0000 0.0000 -67.0000 -1.7366 8.9268 11.0556 0.0000 0.0000 -67.0000 -8.9033 10.9997 39.3870 -0.0000 -0.0000 -67.0000 -3.2951 22.2146 8.6584 
-584.2580 734.6880 25.6055 21.9050 4.9103 102.5890 0.0000 -16.7008 118.8322 -8.0096 9.4358 0.9966 -0.0000 11.8586 169.5859 -1.4001 7.3806 2.3563 40.3745 42.4547 42.3553 28.0442 -10.1917 8.0842 0.0000 -111.4369 141.3570 -35.5111 -7.7775 -5.6287 -0.0000 -172.4081 -79.8464 0.3252 -48.8057 -6.0584 0.0000 -209.8784 7.1457 2.2362 27.4998 0.0874 -0.0000 -64.9257 26.1658 -17.7588 44.4760 17.3148 -67.1373 49.2815 71.5356 -27.8250 -18.7994 -5.2467 0.0000 -111.4369 141.3570 28.4406 21.4400 8.2310 0.0000 -172.4081 -79.8464 2.6856 -75.3948 -17.7073 0.0000 -209.8784 7.1457 8.3495 52.8531 0.4909 -0.0000 -64.9257 26.1658 5.5391 68.9258 -5.8970 0.0000 4.1879 119.9269 -7.5630 4.4656 -2.2610 0.0000 -14.3102 88.8550 -3.1728 58.5229 12.8066 0.0000 72.0997 53.8668 -1.4659 27.5604 4.2637 -0.0000 88.9597 -13.6445 -6.1382 -39.7456 -9.2900 0.0000 19.3735 72.4546 15.4416 3.2345 9.6129 52.5035 51.6663 -2.3693 -9.1585 -11.0545 5.3341 -30.6526 62.4850 -1.8444 0.8008 -5.9001 2.4197 75.0000 -65.3041 -110.1607 8.6939 30.6400 6.2502 0.0000 -209.4885 14.6489 0.0000 -15.4856 0.0000 -0.0000 -168.5298 -141.4133 -0.0000 31.5721 0.0000 -0.0000 -96.5926 25.8819 -5.2173 53.2800 5.2605 -75.0000 -65.3041 -110.1607 -2.5157 29.6528 -23.0543 0.0000 -209.4885 14.6489 -0.0000 -21.3461 -0.0000 0.0000 -168.5298 -141.4133 0.0000 47.3950 -0.0000 -0.0000 -96.5926 25.8819 8.9993 31.7159 -7.4089 0.0000 -22.9100 -124.3991 -0.2595 13.8802 2.5072 0.0000 -0.0000 -67.0000 -0.3683 -4.7616 -4.4276 0.0000 0.0000 -67.0000 -3.7325 24.2634 9.0205 0.0000 0.0000 -67.0000 -0.2670 11.4796 1.3414 0.0000 -0.0000 -67.0000 -0.4976 3.6793 7.7083 -0.0000 0.0000 -67.0000 -5.7836 8.9792 32.9820 0.0000 0.0000 -67.0000 -1.4556 19.1376 4.4322 
-546.5030 757.8450 21.5755 18.5920 3.5869 103.0054 -0.0000 -16.7008 118.8322 -7.6738 9.6109 0.9348 0.0000 11.8586 169.5859 -1.4399 6.6711 2.2639 38.2472 45.4306 48.7303 22.1200 -6.7073 10.0607 0.0000 -111.4369 141.3570 -29.8197 -12.4006 -8.5401 0.0000 -172.4081 -79.8464 0.2969 -43.3930 -6.1466 0.0000 -209.8784 7.1457 3.0611 26.7621 0.1187 -0.0000 -64.9257 26.1658 -18.1981 45.4057 17.8801 -68.1986 48.7952 76.2156 -26.3595 -17.5337 -6.1607 -0.0000 -111.4369 141.3570 30.6657 16.2664 6.5578 -0.0000 -172.4081 -79.8464 0.5969 -65.6195 -6.7122 -0.0000 -209.8784 7.1457 9.2602 37.3604 0.4053 0.0000 -64.9257 26.1658 10.7272 59.4814 -11.2547 0.0000 4.1879 119.9269 -7.5316 5.8931 -2.0748 0.0000 -14.3102 88.8550 -3.2075 56.7771 12.9185 0.0000 72.0997 53.8668 -1.5807 26.2288 4.3486 -0.0000 88.9597 -13.6445 -6.3657 -36.3282 -9.5426 0.0000 19.3735 72.4546 16.3980 -1.3851 10.4215 52.4733 51.4680 -2.7997 -8.7464 -12.2875 5.6721 -29.8064 61.6123 -3.2581 1.3774 -6.6577 2.0973 75.0000 -65.3041 -110.1607 9.3638 27.1294 6.3172 0.0000 -209.4885 14.6489 -0.0000 -14.0811 -0.0000 0.0000 -168.5298 -141.4133 -0.0000 27.7934 0.0000 -0.0000 -96.5926 25.8819 -8.2554 46.8744 7.9910 -75.0000 -65.3041 -110.1607 -2.0313 26.3091 -22.4727 0.0000 -209.4885 14.6489 0.0000 -19.1349 0.0000 0.0000 -168.5298 -141.4133 0.0000 44.8193 -0.0000 0.0000 -96.5926 25.8819 9.1265 31.5295 -7.4951 0.0000 -22.9100 -124.3991 -0.1416 11.6221 2.2192 0.0000 0.0000 -67.0000 -0.0043 -0.0551 -4.5030 0.0000 -0.0000 -67.0000 -1.8983 21.0430 5.2737 0.0000 -0.0000 -67.0000 -0.0259 11.4231 0.1310 0.0000 0.0000 -67.0000 0.0375 -0.5339 4.0176 0.0000 0.0000 -67.0000 -2.4233 5.5692 23.5603 0.0000 -0.0000 -67.0000 -0.2787 13.1102 1.2286 
-508.1430 778.5130 17.3556 14.8688 2.2863 103.3302 0.0000 -16.7008 118.8322 -7.5893 9.3848 0.9745 0.0000 11.8586 169.5859 -1.3665 5.8568 2.0573 37.3583 46.3671 54.7867 17.1072 -3.9252 12.0278 0.0000 -111.4369 141.3570 -25.2399 -16.7818 -11.6932 0.0000 -172.4081 -79.8464 0.2246 -38.4017 -5.0368 0.0000 -209.8784 7.1457 3.7905 25.5990 0.1454 -0.0000 -64.9257 26.1658 -18.2139 43.8160 17.6806 -69.0529 47.6983 79.9390 -24.1822 -15.7405 -6.4586 0.0000 -111.4369 141.3570 31.1490 9.6844 4.9829 -0.0000 -172.4081 -79.8464 -0.0422 -56.1331 0.6562 0.0000 -209.8784 7.1457 7.6706 25.2658 0.2926 -0.0000 -64.9257 26.1658 12.3244 50.8383 -12.4605 0.0000 4.1879 119.9269 -7.5036 7.1909 -1.8490 0.0000 -14.3102 88.8550 -2.7072 54.9099 12.7108 0.0000 72.0997 53.8668 -2.0258 24.3347 4.4247 0.0000 88.9597 -13.6445 -6.3069 -32.7501 -9.5643 0.0000 19.3735 72.4546 17.4034 -5.8291 10.7203 51.8160 52.1060 -2.8844 -8.8285 -14.5255 6.3754 -29.3739 61.3483 -3.9319 0.9294 -8.4091 1.4795 75.0000 -65.3041 -110.1607 9.2689 23.4458 6.2289 0.0000 -209.4885 14.6489 -0.0000 -13.0005 -0.0000 0.0000 -168.5298 -141.4133 0.0000 24.8044 0.0000 0.0000 -96.5926 25.8819 -8.2788 34.8872 7.1047 -75.0000 -65.3041 -110.1607 -1.1644 22.4475 -21.0665 0.0000 -209.4885 14.6489 0.0000 -17.2034 0.0000 0.0000 -168.5298 -141.4133 0.0000 42.5949 -0.0000 -0.0000 -96.5926 25.8819 6.5178 32.4217 -5.4047 -0.0000 -22.9100 -124.3991 0.0004 7.9893 1.8702 0.0000 -0.0000 -67.0000 0.2660 2.9969 -5.0755 -0.0000 0.0000 -67.0000 -0.8447 19.0180 2.5906 0.0000 0.0000 -67.0000 0.1689 12.0212 -0.8111 0.0000 -0.0000 -67.0000 0.0677 -2.5646 1.5124 0.0000 0.0000 -67.0000 -0.4987 2.0739 13.5228 -0.0000 0.0000 -67.0000 -0.0282 6.7479 0.2400 
